
        <svg xmlns="http://www.w3.org/2000/svg" xmlns:xlink="http://www.w3.org/1999/xlink" version="1.1" width="2453.531598513011" height="3223.0483271375465" viewBox="0 0 2453.531598513011 3223.0483271375465">
			
			<g transform="scale(11.152416356877323) translate(10, 10)">
				<defs id="SvgjsDefs1237"/><g id="SvgjsG1238" featureKey="nameContainer" transform="matrix(1,0,0,1,0,0)" fill="#000"><rect y="0" height="1" width="1" opacity="0"/><rect y="264" width="200" height="5"/></g><g id="SvgjsG1239" featureKey="nameFeature-0" transform="matrix(8.320482551423362,0,0,8.320482551423362,-6.0065582233657135,-81.44390512687083)" fill="#000"><path d="M4.7059 16.203 l-3.984 0 l0 -4.2513 l11.658 0 l0 4.2513 l-5.0802 0 l1.0963 0.80214 l0 22.968 l-3.6898 0 l0 -23.77 z M24.758967914438504 14.678999999999998 l0 5.7754 l-3.6631 0 l0 -4.2246 l-5.4011 0 l1.0695 0.82888 l0 3.3957 l7.9947 9.8128 l0 4.2246 l0 2.8877 c0 1.4171 -1.1497 2.6471 -2.6471 2.6471 l-6.3636 0 c-1.4973 0 -2.6471 -1.2299 -2.6471 -2.6471 l0 -5.9626 l3.6631 0 l0 4.385 l4.3316 0 l0 -4.2246 l-7.9947 -9.8128 l0 -7.0856 c0 -1.4973 1.1497 -2.6471 2.6471 -2.6471 l6.3636 0 c1.4973 0 2.6471 1.1497 2.6471 2.6471 z"/></g>
			</g>
		</svg>
	